<?xml version="1.0" encoding="UTF-8"?>
<svg version="1.1" xmlns="http://www.w3.org/2000/svg" width="280" height="280">
<path d="M0 0 C1.02523773 0.00187317 2.05047546 0.00374634 3.10678101 0.00567627 C5.26685861 0.01237992 7.42692442 0.02626072 9.58691406 0.046875 C12.89399496 0.07808308 16.20059878 0.08785479 19.5078125 0.09375 C21.60938082 0.10291867 23.71094429 0.11329401 25.8125 0.125 C27.29540024 0.13137482 27.29540024 0.13137482 28.80825806 0.13787842 C29.72956512 0.14748596 30.65087219 0.15709351 31.60009766 0.16699219 C32.81205307 0.17723419 32.81205307 0.17723419 34.04849243 0.18768311 C39.4738524 0.53014002 39.4738524 0.53014002 41.86893272 2.92042732 C43.80970647 6.24743377 43.64522037 8.7481222 43.64093018 12.59121704 C43.64419902 13.32417948 43.64746786 14.05714192 43.65083575 14.81231534 C43.65812061 17.26913022 43.64395584 19.72535041 43.62988281 22.18212891 C43.63067362 23.94299928 43.63277066 25.70386949 43.63607788 27.46473694 C43.64121529 32.24762282 43.62767049 37.03029384 43.61055088 41.81314516 C43.59552822 46.81303672 43.59668925 51.81292534 43.59588623 56.81283569 C43.59219293 65.20761795 43.57722109 73.60231847 43.5546875 81.99707031 C43.52579483 92.78305906 43.51546268 103.56898203 43.5110054 114.35500526 C43.50702971 123.61653053 43.49452836 132.87804142 43.48065853 142.13955641 C43.47655498 145.12265585 43.47363171 148.10575479 43.47086334 151.08885574 C43.46597913 155.76899873 43.45579061 160.44910159 43.44142532 165.12922478 C43.43689328 166.8505956 43.43406153 168.57197184 43.43301773 170.29334831 C43.43127856 172.63527292 43.42341307 174.97709631 43.41387939 177.31900024 C43.41090473 178.63196894 43.40793007 179.94493763 43.40486526 181.29769325 C43.2734375 184.328125 43.2734375 184.328125 42.2734375 186.328125 C41.6134375 186.328125 40.9534375 186.328125 40.2734375 186.328125 C39.9434375 187.318125 39.6134375 188.308125 39.2734375 189.328125 C21.7834375 189.328125 4.2934375 189.328125 -13.7265625 189.328125 C-13.7265625 188.668125 -13.7265625 188.008125 -13.7265625 187.328125 C-14.7165625 186.998125 -15.7065625 186.668125 -16.7265625 186.328125 C-17.0565625 184.678125 -17.3865625 183.028125 -17.7265625 181.328125 C-18.3865625 181.328125 -19.0465625 181.328125 -19.7265625 181.328125 C-19.7265625 124.238125 -19.7265625 67.148125 -19.7265625 8.328125 C-19.0665625 8.328125 -18.4065625 8.328125 -17.7265625 8.328125 C-17.6853125 7.565 -17.6440625 6.801875 -17.6015625 6.015625 C-16.7265625 3.328125 -16.7265625 3.328125 -14.34228516 1.68066406 C-9.46959828 -0.14206958 -5.1587619 -0.06469362 0 0 Z " fill="#8600D9" transform="translate(229.7265625,43.671875)"/>
<path d="M0 0 C0.495 0.99 0.495 0.99 1 2 C1.9075 1.938125 2.815 1.87625 3.75 1.8125 C7.41761316 2.02409307 8.23439136 2.76967045 11 5 C12.66500443 5.34153937 14.33178677 5.67449498 16 6 C18.54970527 7.36813453 20.79074866 8.83513531 23.0625 10.625 C25.12080605 12.08573333 26.57655756 12.4124988 29 13 C30.67739862 13.98189187 32.34467377 14.98133771 34 16 C35.485 16.495 35.485 16.495 37 17 C37 17.66 37 18.32 37 19 C38.010625 19.226875 39.02125 19.45375 40.0625 19.6875 C44.31581512 20.93745383 47.97790711 22.68630166 51 26 C52.55334533 31.97440511 49.52282987 36.30857122 46.59375 41.3515625 C46.0678125 42.22554687 45.541875 43.09953125 45 44 C42.70835022 47.92224674 40.63402785 51.75152759 39 56 C38.01642648 58.00812926 37.01691264 60.00854609 36 62 C35.33221124 63.33277169 34.66569467 64.66618111 34 66 C32.33333333 69.33333333 30.66666667 72.66666667 29 76 C28.34 76 27.68 76 27 76 C27.33 76.99 27.66 77.98 28 79 C26.71810412 81.03335209 25.37843192 83.03081154 24 85 C23.29788106 86.65204456 22.63028587 88.31923769 22 90 C21.01642648 92.00812926 20.01691264 94.00854609 19 96 C18.67 96.680625 18.34 97.36125 18 98.0625 C17 100 17 100 15.4375 102.5 C13.92389183 104.86880923 13.92389183 104.86880923 13.4375 107.25 C13.293125 107.8275 13.14875 108.405 13 109 C12.01 109.495 12.01 109.495 11 110 C10.855625 110.7425 10.71125 111.485 10.5625 112.25 C9.92031244 115.38958364 8.71027355 117.30303018 7 120 C6.505 120.99 6.01 121.98 5.5 123 C4 126 4 126 2.5 128.4375 C0.69647077 131.51852909 -0.61519334 134.71108419 -2 138 C-3.5273911 141.17697349 -5.04355737 144.06533606 -7 147 C-8.31611702 149.38546209 -9.17907923 151.57081505 -10 154.1875 C-11 157 -11 157 -13 158 C-13.68124706 159.99508067 -14.34427209 161.99638693 -15 164 C-16.80253907 167.97524242 -18.85891275 171.7969831 -21.0625 175.5625 C-23.07797716 178.96881484 -23.07797716 178.96881484 -24.5 182.6875 C-26.03655855 186.08073346 -26.96357518 187.86629607 -30 190 C-33.73571925 191.04754189 -36.83566054 191.4366273 -40.5 190.0625 C-40.995 189.711875 -41.49 189.36125 -42 189 C-42 188.34 -42 187.68 -42 187 C-42.721875 187.061875 -43.44375 187.12375 -44.1875 187.1875 C-48.35628049 186.9095813 -50.84644854 184.90885873 -54.0625 182.375 C-56.12080605 180.91426667 -57.57655756 180.5875012 -60 180 C-61.66844384 179.00296793 -63.33480232 178.00244425 -65 177 C-66.95113335 176.02709154 -68.90985647 175.06928975 -70.875 174.125 C-75.63230987 171.77571118 -79.80704623 169.24000973 -84 166 C-83.6083965 160.04492601 -82.62875405 155.37180176 -80 150 C-79.34 150 -78.68 150 -78 150 C-77.773125 149.01 -77.54625 148.02 -77.3125 147 C-76.23051758 143.12681654 -74.29886387 140.1783465 -72.09765625 136.84765625 C-70.76623993 134.60651774 -70.41460745 132.55674597 -70 130 C-69.03567924 128.31243867 -68.0268343 126.6502694 -67 125 C-65.70117389 122.44741746 -64.43931382 119.87871805 -63.18359375 117.3046875 C-62 115 -62 115 -60 112 C-59.36707617 109.88719655 -59.36707617 109.88719655 -59 108 C-58.34 108 -57.68 108 -57 108 C-56.87625 107.030625 -56.7525 106.06125 -56.625 105.0625 C-56.41875 104.051875 -56.2125 103.04125 -56 102 C-55.01 101.505 -55.01 101.505 -54 101 C-53.65846063 99.33499557 -53.32550502 97.66821323 -53 96 C-52.01 95.01 -52.01 95.01 -51 94 C-50.29289322 92.35008418 -49.62056011 90.68437744 -49 89 C-48.34 89 -47.68 89 -47 89 C-46.87625 87.88625 -46.7525 86.7725 -46.625 85.625 C-46 82 -46 82 -44 80 C-43.31653318 78.34015202 -42.65411685 76.67163195 -42 75 C-40.19214836 71.17512381 -38.34935277 67.52402916 -36 64 C-34.86252091 61.8672267 -33.89826822 59.74567054 -33 57.5 C-32.1007762 55.25194049 -31.09433067 53.1576165 -30 51 C-29.36191406 49.72382812 -29.36191406 49.72382812 -28.7109375 48.421875 C-27.47395833 45.94791667 -26.23697917 43.47395833 -25 41 C-24.34 41 -23.68 41 -23 41 C-23.0825 40.29875 -23.165 39.5975 -23.25 38.875 C-22.91682729 35.04351383 -21.23050857 33.08335008 -19 30 C-17.8441032 27.88085588 -16.9295181 25.81674705 -16.0625 23.5625 C-15 21 -15 21 -13.625 18.75 C-11.39956393 14.98387742 -9.72340307 11.01544168 -8 7 C-7.34 7 -6.68 7 -6 7 C-5.67 5.68 -5.34 4.36 -5 3 C-2.525 2.505 -2.525 2.505 0 2 C0 1.34 0 0.68 0 0 Z " fill="#EE01FB" transform="translate(88,43)"/>
<path d="M0 0 C0 0.66 0 1.32 0 2 C0.7734375 1.96519531 1.546875 1.93039063 2.34375 1.89453125 C8.24445486 1.74117135 12.75070569 1.9415514 18.14453125 4.34375 C20.73559816 5.26016945 23.2121621 5.03277558 25.92578125 4.91015625 C29.14001649 5.04937925 31.90526175 6.16914399 34.8984375 7.28515625 C37.14868417 8.13318232 37.14868417 8.13318232 40.25 8.375 C44.18242705 9.26873342 45.65172108 10.75384973 48 14 C48.68386885 20.05712413 47.75999233 25.48001535 45 31 C45.00570796 32.37561933 45.0532009 33.75124384 45.125 35.125 C45.17220436 38.42406019 44.87452193 40.78914512 43.5625 43.8125 C41.65969415 48.24344695 41.46782151 52.58646186 41.2109375 57.36328125 C41 60 41 60 40 63 C39.34 63 38.68 63 38 63 C38.04640625 63.63164063 38.0928125 64.26328125 38.140625 64.9140625 C38.47467176 73.19365013 36.48679039 80.16011866 34 88 C33.13137794 90.98352794 33 92.75264281 33 96 C33 96.99 33 97.98 33 99 C32.34 99 31.68 99 31 99 C31.04640625 99.55945313 31.0928125 100.11890625 31.140625 100.6953125 C31.45477448 107.67391883 29.91532243 113.47105508 27.77734375 120.09375 C26.67946985 122.91155429 26.67946985 122.91155429 28 125 C27.34 125 26.68 125 26 125 C26.29003906 126.09248047 26.29003906 126.09248047 26.5859375 127.20703125 C27.04242171 130.28614645 26.66853459 131.79145218 25.625 134.6875 C23.94813083 139.77936301 23.32912606 144.66588802 23 150 C22.34 150 21.68 150 21 150 C21.03480469 150.70125 21.06960937 151.4025 21.10546875 152.125 C21.26400042 157.68115755 20.96378142 161.76995224 18.72265625 166.8359375 C17.8011383 169.59551016 17.66916585 172.16148559 17.5 175.0625 C17.12861641 180.94521607 16.17741755 185.18750233 12.5 189.9375 C11 191 11 191 8 191 C8 191.66 8 192.32 8 193 C7.01 192.67 6.02 192.34 5 192 C1.4542249 191.48730591 -2.0974591 191.04248409 -5.65234375 190.59765625 C-9 190 -9 190 -10.953125 188.99609375 C-14.07964659 187.47459946 -17.39519478 187.3407839 -20.8125 187 C-26.09427218 186.46438367 -30.8941965 185.55664741 -36 184 C-37.99488234 183.63729412 -39.9937811 183.29359301 -42 183 C-42.33 182.01 -42.66 181.02 -43 180 C-45.00016466 178.79117904 -45.00016466 178.79117904 -47 178 C-47.23529355 172.23530807 -46.84517785 167.53553355 -45 162 C-43.17948233 157.43728682 -43.17948233 157.43728682 -44 153 C-43.34 153 -42.68 153 -42 153 C-42.19464844 152.27683594 -42.38929687 151.55367187 -42.58984375 150.80859375 C-43.04911345 147.66368982 -42.6171388 146.02955048 -41.5625 143.0625 C-40.55751313 140.02049938 -40 137.98632254 -40 134.75 C-40 132 -40 132 -38.5 129.1875 C-37.02929523 126.06225236 -36.86027274 125.08444667 -37 121.8125 C-37.17008595 117.18152332 -36.12134196 113.40839375 -34.80078125 108.99609375 C-33.39804447 103.74780542 -32.72662187 98.37700184 -32 93 C-31.67 93 -31.34 93 -31 93 C-30.96261719 92.29875 -30.92523438 91.5975 -30.88671875 90.875 C-30.45366796 84.62548275 -29.35197887 79.78194805 -27 74 C-26.35249895 70.8802222 -26 68.18158293 -26 65 C-25.58591244 61.41124116 -25.02737482 58.09239 -24 54.625 C-23.00777094 51.02816966 -22.60285398 47.72081194 -22.34375 44.015625 C-22 42 -22 42 -20 39 C-19.96844362 37.01194829 -19.93931656 35.02150884 -20.02734375 33.03515625 C-19.98634112 29.98338926 -19.09658878 27.33130451 -18.24609375 24.4140625 C-16.8103872 19.46191526 -15.74002779 15.19944424 -16 10 C-15.67 9.01 -15.34 8.02 -15 7 C-14.34 7 -13.68 7 -13 7 C-12.814375 6.1028125 -12.814375 6.1028125 -12.625 5.1875 C-12 3 -12 3 -10 0 C-6.35590321 -0.95063395 -3.57969574 -1.23912545 0 0 Z " fill="#A218E3" transform="translate(160,43)"/>
</svg>
