<?xml version="1.0" encoding="UTF-8"?>
<svg version="1.1" xmlns="http://www.w3.org/2000/svg" width="100" height="100">
<path d="M0 0 C9.84132821 8.04339324 15.81855176 18.96185215 17.84375 31.47265625 C18.97849844 46.20578357 15.53543712 59.2061625 6.03125 70.65625 C-3.52204032 80.84514229 -15.02737951 85.68746098 -28.8125 86.4765625 C-35.59795932 86.46863556 -42.07279797 85.50961668 -48.28125 82.72265625 C-53.15600708 80.73664411 -57.24465182 82.12161492 -62.15625 83.47265625 C-64.28028674 84.01808791 -66.40530649 84.55970461 -68.53125 85.09765625 C-69.99691406 85.48824219 -69.99691406 85.48824219 -71.4921875 85.88671875 C-74.15625 86.47265625 -74.15625 86.47265625 -78.15625 86.47265625 C-77.53196782 83.80581976 -76.90684174 81.13918558 -76.28125 78.47265625 C-76.10722656 77.72886719 -75.93320313 76.98507813 -75.75390625 76.21875 C-75.57988281 75.47753906 -75.40585938 74.73632812 -75.2265625 73.97265625 C-75.05382812 73.22588623 -74.88109375 72.47911621 -74.703125 71.7097168 C-74.33984556 70.22367684 -73.94403784 68.74519879 -73.515625 67.27661133 C-72.33117002 63.22753212 -72.33117002 63.22753212 -72.765625 59.109375 C-73.14203125 58.46613281 -73.5184375 57.82289062 -73.90625 57.16015625 C-79.13480239 46.7739471 -79.23671011 35.12978535 -76.21484375 24.0078125 C-72.07044889 12.2858772 -64.39168776 2.1014187 -53.41796875 -4.06640625 C-50.69765235 -5.35319492 -47.97814408 -6.48391884 -45.15625 -7.52734375 C-44.50140625 -7.77355469 -43.8465625 -8.01976562 -43.171875 -8.2734375 C-28.61323486 -12.78412729 -12.15941159 -8.61291654 0 0 Z " fill="#7ABA7F" transform="translate(80.15625,11.52734375)"/>
<path d="M0 0 C9.84132821 8.04339324 15.81855176 18.96185215 17.84375 31.47265625 C18.97849844 46.20578357 15.53543712 59.2061625 6.03125 70.65625 C-3.52204032 80.84514229 -15.02737951 85.68746098 -28.8125 86.4765625 C-35.59795932 86.46863556 -42.07279797 85.50961668 -48.28125 82.72265625 C-53.15600708 80.73664411 -57.24465182 82.12161492 -62.15625 83.47265625 C-64.28028674 84.01808791 -66.40530649 84.55970461 -68.53125 85.09765625 C-69.99691406 85.48824219 -69.99691406 85.48824219 -71.4921875 85.88671875 C-74.15625 86.47265625 -74.15625 86.47265625 -78.15625 86.47265625 C-77.53196782 83.80581976 -76.90684174 81.13918558 -76.28125 78.47265625 C-76.10722656 77.72886719 -75.93320313 76.98507813 -75.75390625 76.21875 C-75.57988281 75.47753906 -75.40585938 74.73632812 -75.2265625 73.97265625 C-75.05382812 73.22588623 -74.88109375 72.47911621 -74.703125 71.7097168 C-74.33984556 70.22367684 -73.94403784 68.74519879 -73.515625 67.27661133 C-72.33117002 63.22753212 -72.33117002 63.22753212 -72.765625 59.109375 C-73.14203125 58.46613281 -73.5184375 57.82289062 -73.90625 57.16015625 C-79.13480239 46.7739471 -79.23671011 35.12978535 -76.21484375 24.0078125 C-72.07044889 12.2858772 -64.39168776 2.1014187 -53.41796875 -4.06640625 C-50.69765235 -5.35319492 -47.97814408 -6.48391884 -45.15625 -7.52734375 C-44.50140625 -7.77355469 -43.8465625 -8.01976562 -43.171875 -8.2734375 C-28.61323486 -12.78412729 -12.15941159 -8.61291654 0 0 Z M-59.15625 14.47265625 C-65.11843756 21.96234641 -67.54823974 28.69340919 -67.53125 38.22265625 C-67.53181396 39.01599365 -67.53237793 39.80933105 -67.53295898 40.62670898 C-67.41843955 46.75005705 -66.73543175 53.8934745 -62.15625 58.47265625 C-62.24656574 60.82960579 -62.40313128 63.18419207 -62.59375 65.53515625 C-62.69558594 66.82550781 -62.79742187 68.11585937 -62.90234375 69.4453125 C-63.02802734 70.94384766 -63.02802734 70.94384766 -63.15625 72.47265625 C-62.39441406 72.281875 -61.63257813 72.09109375 -60.84765625 71.89453125 C-54.24982342 70.47776815 -50.07109046 70.11271638 -44.09375 73.4296875 C-36.94229419 77.2793623 -25.97813763 76.40551817 -18.16796875 74.89453125 C-8.15560858 71.38142242 0.03910238 62.77354505 4.84375 53.47265625 C8.40969518 44.90209146 8.46419907 32.74156958 5.40625 23.97265625 C0.67611115 14.31251352 -7.99711115 6.45135104 -17.87890625 2.33984375 C-34.03958278 -1.93628282 -47.9175523 2.38136769 -59.15625 14.47265625 Z " fill="#EDF6FA" transform="translate(80.15625,11.52734375)"/>
<path d="M0 0 C9.84132821 8.04339324 15.81855176 18.96185215 17.84375 31.47265625 C18.97849844 46.20578357 15.53543712 59.2061625 6.03125 70.65625 C-3.52204032 80.84514229 -15.02737951 85.68746098 -28.8125 86.4765625 C-35.59795932 86.46863556 -42.07279797 85.50961668 -48.28125 82.72265625 C-53.15600708 80.73664411 -57.24465182 82.12161492 -62.15625 83.47265625 C-64.28028674 84.01808791 -66.40530649 84.55970461 -68.53125 85.09765625 C-69.99691406 85.48824219 -69.99691406 85.48824219 -71.4921875 85.88671875 C-74.15625 86.47265625 -74.15625 86.47265625 -78.15625 86.47265625 C-77.53196782 83.80581976 -76.90684174 81.13918558 -76.28125 78.47265625 C-76.10722656 77.72886719 -75.93320313 76.98507813 -75.75390625 76.21875 C-75.57988281 75.47753906 -75.40585938 74.73632812 -75.2265625 73.97265625 C-75.05382812 73.22588623 -74.88109375 72.47911621 -74.703125 71.7097168 C-74.33984556 70.22367684 -73.94403784 68.74519879 -73.515625 67.27661133 C-72.33117002 63.22753212 -72.33117002 63.22753212 -72.765625 59.109375 C-73.14203125 58.46613281 -73.5184375 57.82289062 -73.90625 57.16015625 C-79.13480239 46.7739471 -79.23671011 35.12978535 -76.21484375 24.0078125 C-72.07044889 12.2858772 -64.39168776 2.1014187 -53.41796875 -4.06640625 C-50.69765235 -5.35319492 -47.97814408 -6.48391884 -45.15625 -7.52734375 C-44.50140625 -7.77355469 -43.8465625 -8.01976562 -43.171875 -8.2734375 C-28.61323486 -12.78412729 -12.15941159 -8.61291654 0 0 Z M-65.33203125 9.90234375 C-73.79289961 21.82365292 -75.77637159 34.15452943 -74.15625 48.47265625 C-73.0553756 51.80787112 -71.68959024 54.77426643 -70.1484375 57.921875 C-68.47201001 62.23174568 -69.74112253 65.25422866 -71.15625 69.47265625 C-71.71577077 71.82264348 -72.25667648 74.17712188 -72.78125 76.53515625 C-73.23922092 78.51440681 -73.69742773 80.49360287 -74.15625 82.47265625 C-66.38177202 81.37345453 -66.38177202 81.37345453 -58.84375 79.28515625 C-54.69768769 78.03169555 -51.16397685 78.74047179 -47.12109375 80.21484375 C-36.13770766 84.17112347 -22.77705721 84.15356699 -11.8984375 79.859375 C0.92539246 73.37438976 8.93620812 63.88112841 13.84375 50.47265625 C14.76207511 47.0444174 14.76207511 47.0444174 14.84375 43.47265625 C14.9365625 42.16748047 14.9365625 42.16748047 15.03125 40.8359375 C15.5481945 28.47773307 11.95038212 17.82892731 3.84375 8.47265625 C-6.15293095 -2.08146044 -17.24675744 -6.37662653 -31.59375 -6.90234375 C-44.70229357 -6.65617392 -56.98150333 -0.09118865 -65.33203125 9.90234375 Z " fill="#7C90A0" transform="translate(80.15625,11.52734375)"/>
<path d="M0 0 C0.86883706 1.57533086 1.71959068 3.16064509 2.5625 4.75 C3.03816406 5.63171875 3.51382813 6.5134375 4.00390625 7.421875 C5.09318864 10.24119414 5.1833977 11.26450784 4 14 C3.34 14.66 2.68 15.32 2 16 C2.48010931 21.11049689 6.48218909 24.59752715 10 28 C13.81461301 30.47071745 13.81461301 30.47071745 18.1875 30.9375 C20.53021128 29.72575279 21.58512526 28.19305584 23 26 C27.23429756 27.31061591 31.07407404 28.94356259 35 31 C34.77641602 34.87545563 34.52142114 37.32215252 32.125 40.4375 C26.40888295 43.29555852 21.02747228 42.9749487 15.00390625 41.03515625 C4.95062358 36.5249059 -4.33315751 28.32122054 -9.2578125 18.328125 C-11.0808118 12.60966403 -11.10603816 7.16953638 -8.375 1.8125 C-5.39263517 -0.46351526 -3.66577816 -0.4165657 0 0 Z " fill="#FBFDFB" transform="translate(38,29)"/>
</svg>
