<?xml version="1.0" encoding="UTF-8"?>
<svg version="1.1" xmlns="http://www.w3.org/2000/svg" width="100" height="100">
<path d="M0 0 C0.79088516 -0.00511093 1.58177032 -0.01022186 2.3966217 -0.01548767 C5.00285475 -0.02935212 7.60882242 -0.02842933 10.21508789 -0.02612305 C12.03202919 -0.03001161 13.84896959 -0.03434661 15.66590881 -0.03910828 C19.47131296 -0.04656364 23.27662431 -0.04628409 27.08203125 -0.04101562 C31.95220174 -0.03522083 36.82199195 -0.05215552 41.69209957 -0.0753603 C45.44367178 -0.09011045 49.19515266 -0.09096761 52.94674873 -0.08785057 C54.7420483 -0.0883631 56.53735306 -0.09358804 58.33262444 -0.10366249 C60.84569714 -0.116035 63.35803235 -0.1092307 65.87109375 -0.09765625 C66.97709427 -0.10912186 66.97709427 -0.10912186 68.10543823 -0.12081909 C72.80726405 -0.07308986 76.11178282 0.58737511 80.00024414 3.2746582 C83.1312591 7.80929924 83.43264033 12.03117607 83.38842773 17.38793945 C83.39368469 18.17897064 83.39894165 18.97000183 83.40435791 19.78500366 C83.41750423 22.38592588 83.40883908 24.98623034 83.39868164 27.5871582 C83.40070392 29.40267046 83.40361665 31.21818192 83.40737915 33.03369141 C83.41179523 36.8331681 83.40539455 40.63243278 83.39135742 44.43188477 C83.37426596 49.29420346 83.38411098 54.15602532 83.40207481 59.01832581 C83.41293202 62.76562217 83.40945742 66.51280137 83.40169144 70.26010132 C83.39969479 72.05260274 83.40212986 73.8451149 83.4091301 75.63760376 C83.41677654 78.14581348 83.40509616 80.65322634 83.38842773 83.16137695 C83.39450043 83.89713959 83.40057312 84.63290222 83.40682983 85.39096069 C83.34923564 90.08550432 82.68157672 93.39129101 80.00024414 97.2746582 C75.46560311 100.40567316 71.24372628 100.7070544 65.88696289 100.6628418 C65.0959317 100.66809875 64.30490051 100.67335571 63.48989868 100.67877197 C60.88897647 100.69191829 58.28867201 100.68325314 55.68774414 100.6730957 C53.87223188 100.67511799 52.05672042 100.67803071 50.24121094 100.68179321 C46.44173425 100.68620929 42.64246957 100.67980861 38.84301758 100.66577148 C33.98069888 100.64868002 29.11887702 100.65852504 24.25657654 100.67648888 C20.50928018 100.68734608 16.76210098 100.68387149 13.01480103 100.6761055 C11.22229961 100.67410885 9.42978744 100.67654393 7.63729858 100.68354416 C5.12908886 100.6911906 2.621676 100.67951022 0.11352539 100.6628418 C-0.99011856 100.67195084 -0.99011856 100.67195084 -2.11605835 100.6812439 C-6.81072801 100.62364816 -10.08090123 99.88911677 -13.99975586 97.2746582 C-17.43466775 93.23383041 -17.43401584 89.17808643 -17.40380859 84.09130859 C-17.41067184 83.28091629 -17.4175351 82.47052399 -17.42460632 81.63557434 C-17.44286502 78.96430804 -17.43903818 76.2936296 -17.43334961 73.62231445 C-17.43791192 71.76053171 -17.44321764 69.89875066 -17.44923401 68.03697205 C-17.45816332 64.13737135 -17.45574409 60.23797547 -17.44580078 56.33837891 C-17.43431237 51.34702097 -17.45452147 46.35637062 -17.48371792 41.36510563 C-17.50208557 37.52086413 -17.50178631 33.676792 -17.4960804 29.83251762 C-17.49592725 27.99255824 -17.50196647 26.15258733 -17.51437187 24.31266975 C-17.52929061 21.7371323 -17.51859895 19.16289965 -17.50146484 16.58740234 C-17.51113281 15.83136719 -17.52080078 15.07533203 -17.53076172 14.29638672 C-17.45940699 9.16063645 -16.38421414 6.14028517 -12.99975586 2.2746582 C-8.92249353 -0.18587838 -4.6380651 -0.01554108 0 0 Z M-10.99975586 9.2746582 C-10.99975586 13.5646582 -10.99975586 17.8546582 -10.99975586 22.2746582 C18.04024414 22.2746582 47.08024414 22.2746582 77.00024414 22.2746582 C77.00024414 17.9846582 77.00024414 13.6946582 77.00024414 9.2746582 C73.72916563 6.00357969 72.85825733 5.92205837 68.45648193 5.86807251 C67.32958954 5.87718155 67.32958954 5.87718155 66.17993164 5.88647461 C65.38451965 5.88121765 64.58910767 5.87596069 63.76959229 5.87054443 C61.13794368 5.85733074 58.50689899 5.86608717 55.87524414 5.8762207 C54.04825728 5.87420036 52.22127121 5.87128925 50.39428711 5.86752319 C46.56429368 5.86309799 42.73451007 5.86953718 38.90454102 5.88354492 C33.99139709 5.90063695 29.07874478 5.89079681 24.1656189 5.87282753 C20.3927031 5.86199497 16.61990415 5.8654336 12.84698486 5.87321091 C11.03525739 5.87521438 9.22351935 5.87274849 7.4118042 5.86577225 C4.88110184 5.85816639 2.35119932 5.86974934 -0.17944336 5.88647461 C-0.93070496 5.88040192 -1.68196655 5.87432922 -2.45599365 5.86807251 C-6.85776905 5.92205837 -7.72867735 6.00357969 -10.99975586 9.2746582 Z M-10.99975586 28.2746582 C-11.06163086 38.6077832 -11.12350586 48.9409082 -11.18725586 59.5871582 C-11.21456787 62.84888916 -11.24187988 66.11062012 -11.27001953 69.47119141 C-11.27877881 72.04760365 -11.28642406 74.62402003 -11.29272461 77.20043945 C-11.30056473 77.87020309 -11.30840485 78.53996674 -11.31648254 79.23002625 C-11.33842762 81.2035378 -11.33977245 83.17724542 -11.34033203 85.15087891 C-11.34699387 86.2634053 -11.3536557 87.3759317 -11.36051941 88.52217102 C-11.17840535 91.2215474 -11.17840535 91.2215474 -9.96723938 93.13313293 C-6.86092899 94.93540054 -3.67170624 94.6910709 -0.17944336 94.6628418 C1.01367462 94.67072723 1.01367462 94.67072723 2.230896 94.67877197 C4.8625446 94.69198567 7.49358929 94.68322923 10.12524414 94.6730957 C11.952231 94.67511605 13.77921708 94.67802716 15.60620117 94.68179321 C19.4361946 94.68621842 23.26597821 94.67977922 27.09594727 94.66577148 C32.00909119 94.64867946 36.9217435 94.65851959 41.83486938 94.67648888 C45.60778518 94.68732143 49.38058413 94.68388281 53.15350342 94.6761055 C54.9652309 94.67410203 56.77696893 94.67656791 58.58868408 94.68354416 C61.11938644 94.69115001 63.64928897 94.67956707 66.17993164 94.6628418 C66.93119324 94.66891449 67.68245483 94.67498718 68.45648193 94.6812439 C71.29294988 94.64645585 73.48236993 94.57512654 75.96772766 93.13313293 C77.47651872 90.4173893 77.35937052 88.24876288 77.34082031 85.15087891 C77.34027649 83.23281433 77.34027649 83.23281433 77.33972168 81.27600098 C77.32461514 79.917476 77.3091154 78.55895534 77.29321289 77.20043945 C77.29019165 75.9649939 77.28717041 74.72954834 77.28405762 73.45666504 C77.26833949 68.83341134 77.22645569 64.21027655 77.18774414 59.5871582 C77.12586914 49.2540332 77.06399414 38.9209082 77.00024414 28.2746582 C47.96024414 28.2746582 18.92024414 28.2746582 -10.99975586 28.2746582 Z " fill="#000000" transform="translate(16.999755859375,-0.274658203125)"/>
<path d="M0 0 C1.65 0 3.3 0 5 0 C5.20496094 0.78246094 5.40992188 1.56492188 5.62109375 2.37109375 C5.89050781 3.38300781 6.15992188 4.39492188 6.4375 5.4375 C6.83775391 6.95150391 6.83775391 6.95150391 7.24609375 8.49609375 C7.75978077 10.91752001 7.75978077 10.91752001 9 12 C9.99 8.37 10.98 4.74 12 1 C13.65 0.67 15.3 0.34 17 0 C17.48108275 1.41601714 17.95978141 2.83284437 18.4375 4.25 C18.70433594 5.03890625 18.97117187 5.8278125 19.24609375 6.640625 C19.9153949 8.7352255 20.46667992 10.86671967 21 13 C22.32 8.71 23.64 4.42 25 0 C26.65 0 28.3 0 30 0 C29.50725113 10.01922694 26.67509007 19.38546963 24 29 C22.35 29.33 20.7 29.66 19 30 C18.51891725 28.58398286 18.04021859 27.16715563 17.5625 25.75 C17.29566406 24.96109375 17.02882813 24.1721875 16.75390625 23.359375 C16.0846051 21.2647745 15.53332008 19.13328033 15 17 C13.68 21.29 12.36 25.58 11 30 C9.35 29.67 7.7 29.34 6 29 C5.18686324 26.0835095 4.3744665 23.16681631 3.5625 20.25 C3.33240234 19.425 3.10230469 18.6 2.86523438 17.75 C2.64287109 16.95078125 2.42050781 16.1515625 2.19140625 15.328125 C1.98717041 14.5949707 1.78293457 13.86181641 1.57250977 13.10644531 C1.38358154 12.41131836 1.19465332 11.71619141 1 11 C0.81171631 10.32807617 0.62343262 9.65615234 0.42944336 8.96386719 C-0.22295131 5.98043189 -0.05847275 3.04058323 0 0 Z " fill="#000000" transform="translate(14,46)"/>
<path d="M0 0 C3.96 0 7.92 0 12 0 C16.47275923 4.47275923 16.47275923 4.47275923 16.625 8.5625 C16.77880855 12.07051812 16.94382331 12.91573497 19 16 C19.80249646 20.51087481 19.52733041 24.006185 17.375 28.0625 C14 30 14 30 0 30 C0 20.1 0 10.2 0 0 Z M5 5 C5 6.98 5 8.96 5 11 C6.65 10.67 8.3 10.34 10 10 C9.67 8.35 9.34 6.7 9 5 C7.68 5 6.36 5 5 5 Z M5 16 C5 18.97 5 21.94 5 25 C8.465 24.505 8.465 24.505 12 24 C12.66 22.35 13.32 20.7 14 19 C12.87890434 17.37506099 12.87890434 17.37506099 11 16 C7.87450983 15.74951364 7.87450983 15.74951364 5 16 Z " fill="#000000" transform="translate(67,46)"/>
<path d="M0 0 C1.39456452 0.00667256 2.78911118 0.01863093 4.18359375 0.03515625 C4.89451172 0.03966797 5.60542969 0.04417969 6.33789062 0.04882812 C8.09899388 0.06064761 9.86005411 0.07858362 11.62109375 0.09765625 C12.18359375 2.03515625 12.18359375 2.03515625 12.62109375 4.09765625 C11.62109375 5.09765625 11.62109375 5.09765625 9.3359375 5.1953125 C7.96115234 5.17791016 7.96115234 5.17791016 6.55859375 5.16015625 C5.63949219 5.15113281 4.72039063 5.14210938 3.7734375 5.1328125 C3.06316406 5.12121094 2.35289063 5.10960937 1.62109375 5.09765625 C1.62109375 7.40765625 1.62109375 9.71765625 1.62109375 12.09765625 C4.92109375 12.09765625 8.22109375 12.09765625 11.62109375 12.09765625 C11.95109375 13.41765625 12.28109375 14.73765625 12.62109375 16.09765625 C10.62109375 18.09765625 10.62109375 18.09765625 8.45703125 18.29296875 C7.64492188 18.26976563 6.8328125 18.2465625 5.99609375 18.22265625 C5.17882813 18.20460938 4.3615625 18.1865625 3.51953125 18.16796875 C2.89304687 18.14476563 2.2665625 18.1215625 1.62109375 18.09765625 C1.62109375 20.40765625 1.62109375 22.71765625 1.62109375 25.09765625 C4.92109375 25.09765625 8.22109375 25.09765625 11.62109375 25.09765625 C11.95109375 26.41765625 12.28109375 27.73765625 12.62109375 29.09765625 C10.86549433 30.85325567 8.58526933 30.22987544 6.25 30.234375 C5.54746094 30.23050781 4.84492187 30.22664063 4.12109375 30.22265625 C3.41855469 30.22652344 2.71601562 30.23039062 1.9921875 30.234375 C-3.25229247 30.22427003 -3.25229247 30.22427003 -4.37890625 29.09765625 C-4.47884157 27.03710315 -4.50971531 24.97313035 -4.51171875 22.91015625 C-4.51300781 21.65460938 -4.51429687 20.3990625 -4.515625 19.10546875 C-4.51353027 18.44836914 -4.51143555 17.79126953 -4.50927734 17.11425781 C-4.50392859 15.1060429 -4.50922316 13.09805166 -4.515625 11.08984375 C-4.51433594 9.83429687 -4.51304688 8.57875 -4.51171875 7.28515625 C-4.51002686 5.54298828 -4.51002686 5.54298828 -4.50830078 3.765625 C-4.31525928 -0.21467231 -4.09341464 0.11830678 0 0 Z " fill="#000000" transform="translate(51.37890625,45.90234375)"/>
<path d="M0 0 C0.94875 0.04125 1.8975 0.0825 2.875 0.125 C3.25718767 1.78114657 3.58895102 3.44957024 3.875 5.125 C2.875 6.125 2.875 6.125 -0.6875 6.1875 C-1.821875 6.166875 -2.95625 6.14625 -4.125 6.125 C-4.75 4.25 -4.75 4.25 -5.125 2.125 C-3.125 0.125 -3.125 0.125 0 0 Z " fill="#000000" transform="translate(16.125,10.875)"/>
<path d="M0 0 C1.4540625 0.0309375 1.4540625 0.0309375 2.9375 0.0625 C3.5975 1.3825 4.2575 2.7025 4.9375 4.0625 C2.9375 6.0625 2.9375 6.0625 -0.1875 6.1875 C-1.610625 6.125625 -1.610625 6.125625 -3.0625 6.0625 C-3.44468767 4.40635343 -3.77645102 2.73792976 -4.0625 1.0625 C-3.0625 0.0625 -3.0625 0.0625 0 0 Z " fill="#000000" transform="translate(28.0625,10.9375)"/>
</svg>
