<?xml version="1.0" encoding="UTF-8"?>
<svg version="1.1" xmlns="http://www.w3.org/2000/svg" width="500" height="500">
<path d="M0 0 C1.0307666 0.24137695 2.0615332 0.48275391 3.12353516 0.73144531 C30.76983939 7.4210852 56.90116932 19.37564338 80 36 C80.55880859 36.40186523 81.11761719 36.80373047 81.69335938 37.21777344 C90.3732314 43.53179523 98.26927336 50.56731991 106 58 C106.54688477 58.51965332 107.09376953 59.03930664 107.65722656 59.57470703 C129.39280026 80.29561361 149.05327343 108.10764249 157.89453125 137.03125 C158.22445068 138.09730469 158.55437012 139.16335937 158.89428711 140.26171875 C159.53282597 142.37015278 160.14328787 144.48736131 160.72094727 146.61328125 C163.03699378 154.31535041 166.35553537 157.65324929 173 162 C175.5 164.3125 175.5 164.3125 178 167 C178.66644531 167.67289063 179.33289063 168.34578125 180.01953125 169.0390625 C190.0838487 179.56630426 196.4233247 192.25965078 201 206 C201.41507812 207.23878906 201.83015625 208.47757813 202.2578125 209.75390625 C208.1135545 229.78982616 207.51287773 256.24852766 201 276 C200.43925781 277.7325 200.43925781 277.7325 199.8671875 279.5 C195.73498543 291.10300448 189.9065843 301.57365862 182 311 C181.236875 312.010625 180.47375 313.02125 179.6875 314.0625 C168.79033589 325.97335379 153.28955424 335.19584302 136.91796875 336.31640625 C132.25624444 337.12976792 129.83405559 339.05434932 126.4375 342.125 C92.48956577 371 92.48956577 371 81 371 C81.06960938 371.72703125 81.13921875 372.4540625 81.2109375 373.203125 C81.7204282 382.66509518 79.36384276 389.92257289 73.13671875 397.16796875 C62.55612143 407.11245802 44.54398812 411.06110724 30.375 411.5625 C20.52173611 411.00265546 13.23443652 407.30855976 6.16796875 400.51171875 C-0.34093392 392.97077386 -2.40774181 384.96950062 -2.265625 375.22265625 C-1.51245414 366.0849216 2.34221979 359.89100837 8.390625 353.19140625 C15.14060528 347.52263539 22.99325306 345.71681212 31.4375 343.75 C33.05881836 343.3478125 33.05881836 343.3478125 34.71289062 342.9375 C44.74851964 340.55183197 53.35171573 339.84987458 63 344 C65.39685074 345.53185056 67.66058674 347.13029349 69.89453125 348.890625 C72.71697629 350.37777601 73.96033936 349.83157091 77 349 C79.26847761 347.91987909 79.26847761 347.91987909 81.484375 346.515625 C82.32935547 345.99863037 83.17433594 345.48163574 84.04492188 344.94897461 C84.93759766 344.38831299 85.83027344 343.82765137 86.75 343.25 C87.67361328 342.67451416 88.59722656 342.09902832 89.54882812 341.50610352 C99.48697575 335.21450473 108.81389751 328.15791788 117.84375 320.62890625 C120 319 120 319 122 319 C122.11029541 318.42604492 122.22059082 317.85208984 122.33422852 317.26074219 C123.27570139 312.44993497 124.29121682 307.66524471 125.40234375 302.890625 C135.50411409 259.37103567 142.22548519 203.3577009 120.84375 161.75 C119.34119898 158.63359789 119.443389 155.33966602 120 152 C121.79363911 149.1899654 123.01880935 147.49059532 126 146 C128.04055005 145.92934383 130.08334257 145.91578024 132.125 145.9375 C133.22070312 145.94652344 134.31640625 145.95554688 135.4453125 145.96484375 C136.70988281 145.98224609 136.70988281 145.98224609 138 146 C130.46391838 128.1912708 121.92513618 111.29948081 110 96 C109.59233398 95.47664063 109.18466797 94.95328125 108.76464844 94.4140625 C76.85009938 54.03751263 30.52905071 26.81502911 -20.3125 18.6875 C-22.53833909 18.42799713 -24.76806041 18.2003673 -27 18 C-27.66644531 17.93441895 -28.33289063 17.86883789 -29.01953125 17.80126953 C-79.58558843 13.05216011 -129.04513242 31.37719987 -168 63 C-171.63378977 66.06048469 -175.1072123 69.26820979 -178.52148438 72.57275391 C-180.05844409 74.05641746 -181.61501765 75.51772277 -183.171875 76.98046875 C-195.45119548 88.69795413 -205.67698746 102.21090202 -214 117 C-214.3928418 117.69287109 -214.78568359 118.38574219 -215.19042969 119.09960938 C-225.89233484 136.65227445 -225.89233484 136.65227445 -231 156 C-229.97519531 155.95359375 -228.95039063 155.9071875 -227.89453125 155.859375 C-226.53388344 155.82183989 -225.17320395 155.78544159 -223.8125 155.75 C-223.13896484 155.71648437 -222.46542969 155.68296875 -221.77148438 155.6484375 C-218.10958025 155.57698571 -216.17849378 155.88465822 -213.07421875 157.890625 C-210.38755927 160.62282108 -210.05390363 161.51486729 -209.625 165.375 C-209.67239105 169.16628395 -210.65734995 171.92136978 -212.1875 175.375 C-232.50186472 221.24057699 -227.44199916 282.67066902 -210.8828125 328.703125 C-209.80222441 332.73859557 -209.72277809 335.82867658 -210 340 C-211.79363911 342.8100346 -213.01880935 344.50940468 -216 346 C-234.62641251 347.22449235 -250.4184305 341.59087552 -264.546875 329.30078125 C-274.74284728 319.73799833 -282.36931192 308.53228769 -287.8125 295.6875 C-288.07812744 295.07390625 -288.34375488 294.4603125 -288.61743164 293.828125 C-293.87317598 280.69784571 -295.66923602 267.45242194 -295.52148438 253.41601562 C-295.50000251 251.00028219 -295.52144715 248.58752058 -295.546875 246.171875 C-295.57398004 231.88325565 -293.09459552 218.40166611 -287.3125 205.25 C-286.9707373 204.45980469 -286.62897461 203.66960937 -286.27685547 202.85546875 C-280.73760128 190.50697278 -272.0293275 176.92247553 -260.3515625 169.7265625 C-256.05696219 166.74133398 -255.45747772 163.32272454 -254.5 158.375 C-254.10789993 156.6661978 -253.70791493 154.9591891 -253.30078125 153.25390625 C-253.09404785 152.38266113 -252.88731445 151.51141602 -252.67431641 150.61376953 C-249.26104328 137.38331983 -243.38910792 125.01301267 -237 113 C-236.48566406 112.00484375 -235.97132813 111.0096875 -235.44140625 109.984375 C-226.65858611 93.32319859 -215.01190847 78.53481694 -202 65 C-201.43120117 64.40396973 -200.86240234 63.80793945 -200.27636719 63.19384766 C-191.75337181 54.306367 -182.97259929 46.2299338 -173 39 C-172.36980957 38.54141602 -171.73961914 38.08283203 -171.09033203 37.61035156 C-145.10234636 18.86173755 -116.26960328 6.02724784 -85 -1 C-84.29697754 -1.16516113 -83.59395508 -1.33032227 -82.86962891 -1.50048828 C-56.83818158 -7.35317593 -25.80166625 -6.08886317 0 0 Z " fill="#000000" transform="translate(295,49)"/>
<path d="M0 0 C1.10330343 -0.00779995 2.20660686 -0.01559991 3.34334373 -0.02363622 C7.04775561 -0.04361174 10.75114654 -0.0277687 14.45556641 -0.01205444 C17.10828665 -0.01882809 19.76093607 -0.0275485 22.41363525 -0.03860474 C28.87509345 -0.06084358 35.33626133 -0.05603325 41.79773092 -0.04154153 C47.04883298 -0.03025176 52.29985365 -0.02871723 57.55096436 -0.03416061 C58.29819083 -0.03492678 59.0454173 -0.03569294 59.81528699 -0.03648233 C61.33324069 -0.03808095 62.85119437 -0.03970201 64.36914802 -0.04134528 C78.60464023 -0.05560467 92.83997149 -0.03920715 107.07543731 -0.01234345 C119.29142033 0.00999555 131.5071658 0.00611548 143.72314453 -0.01693726 C157.90751622 -0.04369198 172.09174682 -0.05423135 186.27614021 -0.03887594 C187.78852461 -0.03728318 189.30090902 -0.03571133 190.81329346 -0.03416061 C191.92949037 -0.03300355 191.92949037 -0.03300355 193.06823671 -0.03182311 C198.3133275 -0.02750511 203.55832883 -0.03479478 208.80340576 -0.04655838 C215.1950618 -0.06057834 221.5864108 -0.05679442 227.97803164 -0.03015466 C231.23956665 -0.01700909 234.50048357 -0.01456484 237.76203156 -0.02840042 C241.29662166 -0.04201438 244.82976079 -0.02498761 248.36425781 0 C249.39683905 -0.01115361 250.42942028 -0.02230722 251.49329185 -0.03379881 C256.10523438 0.02967451 258.46382206 0.13132438 262.31646061 2.83234978 C264.37505227 5.92472371 264.81800526 7.43474388 264.85069275 11.1109314 C264.87201767 12.19863831 264.89334259 13.28634521 264.91531372 14.40701294 C264.91304779 15.59049316 264.91078186 16.77397339 264.90844727 17.99331665 C264.92524033 19.24755432 264.94203339 20.50179199 264.95933533 21.79403687 C264.9986694 25.22858335 265.01522102 28.66161847 265.01841426 32.09628582 C265.02197399 34.24509556 265.03265901 36.39374802 265.04590034 38.54251862 C265.09213787 46.04835526 265.11257942 53.55374857 265.10864258 61.0597229 C265.10564173 68.04106613 265.15833911 75.02047367 265.23736089 82.00132728 C265.30290161 88.00670638 265.32955535 94.01145557 265.32636553 100.01718926 C265.32509478 103.59905349 265.33910161 107.17919816 265.39225578 110.76070404 C265.45001174 114.76144402 265.42683906 118.75789775 265.39672852 122.75894165 C265.42482605 123.93432495 265.45292358 125.10970825 265.48187256 126.32070923 C265.38763866 131.25870139 265.17528988 134.39882421 262.0199604 138.32596588 C259.50339307 140.62713092 256.9627833 142.66432412 254.18212891 144.63491821 C253.43409972 145.17848339 252.68607054 145.72204857 251.9153738 146.28208542 C250.00091763 147.63794529 248.0483268 148.89485179 246.05712891 150.13491821 C245.33340088 150.59358276 244.60967285 151.05224731 243.86401367 151.52481079 C216.55269954 168.66370582 172.5959704 195.86223697 139.18212891 190.63491821 C135.93212891 188.75991821 135.93212891 188.75991821 134.18212891 185.63491821 C132.78633846 177.51311025 135.4873944 172.11327692 139.74462891 165.38491821 C140.79192947 163.67402068 141.83482648 161.96042058 142.87353516 160.24429321 C143.37542862 159.41677551 143.87732208 158.58925781 144.39442444 157.73666382 C146.36745594 154.31336768 148.14195207 150.82644653 149.88891602 147.28433228 C150.20785576 146.64190582 150.5267955 145.99947937 150.85540009 145.33758545 C151.63284164 143.77095397 152.40775048 142.20306605 153.18212891 140.63491821 C152.34152577 140.63952718 151.50092264 140.64413614 150.63484669 140.64888477 C130.18741093 140.75927444 109.74002649 140.84203122 89.29235554 140.89397907 C79.4040234 140.919768 69.51589008 140.9549317 59.62768555 141.01211548 C51.00978104 141.06192935 42.39202051 141.09420422 33.77397603 141.10536069 C29.21010624 141.11188288 24.64664838 141.12722602 20.08291054 141.1635685 C15.78762155 141.19749624 11.4929143 141.20797779 7.19750404 141.20045662 C5.62087849 141.20183262 4.04423357 141.21178473 2.46772385 141.23094559 C0.31426002 141.25583576 -1.83700941 141.24984128 -3.99052429 141.2361908 C-5.79769944 141.24310424 -5.79769944 141.24310424 -7.64138317 141.25015736 C-11.81505166 140.44177896 -13.28309617 139.00148936 -15.81787109 135.63491821 C-16.4470768 133.00338745 -16.4470768 133.00338745 -16.45278931 130.13198853 C-16.46688843 129.03850098 -16.48098755 127.94501343 -16.49551392 126.81838989 C-16.48539276 125.62862549 -16.47527161 124.43886108 -16.46484375 123.21304321 C-16.47360535 121.95238037 -16.48236694 120.69171753 -16.49139404 119.39285278 C-16.51415254 115.94226456 -16.50536621 112.49242534 -16.48949862 109.04182434 C-16.47682132 105.4273276 -16.48858478 101.81289409 -16.49642944 98.19839478 C-16.50552076 92.12894196 -16.49355201 86.05979354 -16.46972656 79.99038696 C-16.44251586 72.97771434 -16.45133042 65.96576857 -16.47885859 58.95311356 C-16.50156374 52.92744357 -16.50474301 46.90199214 -16.49166524 40.87629318 C-16.48387829 37.27947834 -16.48280783 33.68300493 -16.49934769 30.08621216 C-16.51650135 26.07596945 -16.49271449 22.06697561 -16.46484375 18.05679321 C-16.4749649 16.86702881 -16.48508606 15.6772644 -16.49551392 14.45144653 C-16.48141479 13.35795898 -16.46731567 12.26447144 -16.45278931 11.1378479 C-16.45090418 10.19028625 -16.44901905 9.24272461 -16.4470768 8.26644897 C-14.36720103 -0.43222783 -7.41344645 -0.08007765 0 0 Z M40.50244141 50.61538696 C34.73674163 59.43451945 34.16316655 68.39330675 35.18212891 78.63491821 C36.92502851 86.16463615 40.75189737 92.28741142 46.92431641 96.95132446 C52.6586041 100.36572398 58.67890507 100.48507012 65.18212891 99.63491821 C72.37837464 97.60119659 76.71354349 92.78244836 80.43994141 86.52163696 C84.39900925 78.2851147 84.52729916 68.44635597 82.48681641 59.63101196 C79.9687299 52.70098397 75.94805118 47.00280139 69.55712891 43.19741821 C58.86388007 38.46534832 47.49672102 41.53811151 40.50244141 50.61538696 Z M170.50244141 50.61538696 C164.73674163 59.43451945 164.16316655 68.39330675 165.18212891 78.63491821 C166.92502851 86.16463615 170.75189737 92.28741142 176.92431641 96.95132446 C182.6586041 100.36572398 188.67890507 100.48507012 195.18212891 99.63491821 C202.37837464 97.60119659 206.71354349 92.78244836 210.43994141 86.52163696 C214.39900925 78.2851147 214.52729916 68.44635597 212.48681641 59.63101196 C209.9687299 52.70098397 205.94805118 47.00280139 199.55712891 43.19741821 C188.86388007 38.46534832 177.49672102 41.53811151 170.50244141 50.61538696 Z " fill="#000000" transform="translate(125.81787109375,189.36508178710938)"/>
</svg>
